<svg xmlns="http://www.w3.org/2000/svg" xmlns:xlink="http://www.w3.org/1999/xlink" version="1.1" x="0px" y="0px" viewBox="0 0 48 60" enable-background="new 0 0 48 48" xml:space="preserve"><g><g><path fill="#000000" d="M24,47.3c-10.9,0-19.8-8.9-19.8-19.8c0-7.6,4.3-14.5,11.2-17.8c0.7-0.4,1.6-0.1,2,0.7    c0.4,0.7,0.1,1.6-0.7,2c-5.9,2.8-9.5,8.6-9.5,15.1c0,9.3,7.5,16.8,16.8,16.8s16.8-7.5,16.8-16.8c0-6.5-3.6-12.3-9.5-15.1    c-0.7-0.4-1.1-1.3-0.7-2c0.4-0.7,1.3-1.1,2-0.7c6.9,3.4,11.2,10.2,11.2,17.8C43.8,38.4,34.9,47.3,24,47.3z"/></g><g><path fill="#000000" d="M24,26.2c-0.8,0-1.5-0.7-1.5-1.5V2.2c0-0.8,0.7-1.5,1.5-1.5s1.5,0.7,1.5,1.5v22.5    C25.5,25.5,24.8,26.2,24,26.2z"/></g></g><text x="0" y="63" fill="#000000" font-size="5px" font-weight="bold" font-family="'Helvetica Neue', Helvetica, Arial-Unicode, Arial, Sans-serif"></text><text x="0" y="68" fill="#000000" font-size="5px" font-weight="bold" font-family="'Helvetica Neue', Helvetica, Arial-Unicode, Arial, Sans-serif"></text></svg>